<mxfile host="app.diagrams.net" agent="Mozilla/5.0 (Macintosh; Intel Mac OS X 10_15_7) AppleWebKit/537.36 (KHTML, like Gecko) Chrome/133.0.0.0 Safari/537.36" version="26.0.16">
  <diagram id="R2lEEEUBdFMjLlhIrx00" name="Page-1">
    <mxGraphModel dx="568" dy="561" grid="1" gridSize="10" guides="1" tooltips="1" connect="1" arrows="1" fold="1" page="1" pageScale="1" pageWidth="850" pageHeight="1100" math="0" shadow="0" extFonts="Permanent Marker^https://fonts.googleapis.com/css?family=Permanent+Marker">
      <root>
        <mxCell id="0" />
        <mxCell id="1" parent="0" />
        <mxCell id="Of0GyVSlg59-bF7Z7GIo-2" value="STUDENT" style="rounded=0;whiteSpace=wrap;html=1;" vertex="1" parent="1">
          <mxGeometry x="90" y="125" width="120" height="60" as="geometry" />
        </mxCell>
        <mxCell id="Of0GyVSlg59-bF7Z7GIo-3" value="COURSE" style="rounded=0;whiteSpace=wrap;html=1;" vertex="1" parent="1">
          <mxGeometry x="300" y="125" width="120" height="60" as="geometry" />
        </mxCell>
        <mxCell id="Of0GyVSlg59-bF7Z7GIo-25" value="STUDENT" style="rounded=0;whiteSpace=wrap;html=1;" vertex="1" parent="1">
          <mxGeometry x="80" y="290" width="120" height="60" as="geometry" />
        </mxCell>
        <mxCell id="Of0GyVSlg59-bF7Z7GIo-27" value="COURSE" style="rounded=0;whiteSpace=wrap;html=1;" vertex="1" parent="1">
          <mxGeometry x="340" y="290" width="120" height="60" as="geometry" />
        </mxCell>
        <mxCell id="Of0GyVSlg59-bF7Z7GIo-28" value="N:M" style="rhombus;whiteSpace=wrap;html=1;" vertex="1" parent="1">
          <mxGeometry x="250" y="300" width="40" height="40" as="geometry" />
        </mxCell>
        <mxCell id="Of0GyVSlg59-bF7Z7GIo-30" value="" style="endArrow=none;html=1;rounded=0;fontSize=12;startSize=8;endSize=8;curved=1;entryX=0;entryY=0.5;entryDx=0;entryDy=0;exitX=1;exitY=0.5;exitDx=0;exitDy=0;" edge="1" parent="1" source="Of0GyVSlg59-bF7Z7GIo-31" target="Of0GyVSlg59-bF7Z7GIo-27">
          <mxGeometry relative="1" as="geometry">
            <mxPoint x="250" y="350" as="sourcePoint" />
            <mxPoint x="410" y="350" as="targetPoint" />
          </mxGeometry>
        </mxCell>
        <mxCell id="Of0GyVSlg59-bF7Z7GIo-32" value="" style="endArrow=none;html=1;rounded=0;fontSize=12;startSize=8;endSize=8;curved=1;entryX=0;entryY=0.5;entryDx=0;entryDy=0;exitX=1;exitY=0.5;exitDx=0;exitDy=0;" edge="1" parent="1" source="Of0GyVSlg59-bF7Z7GIo-28" target="Of0GyVSlg59-bF7Z7GIo-31">
          <mxGeometry relative="1" as="geometry">
            <mxPoint x="290" y="320" as="sourcePoint" />
            <mxPoint x="340" y="320" as="targetPoint" />
          </mxGeometry>
        </mxCell>
        <mxCell id="Of0GyVSlg59-bF7Z7GIo-31" value="" style="ellipse;whiteSpace=wrap;html=1;aspect=fixed;" vertex="1" parent="1">
          <mxGeometry x="320" y="315" width="10" height="10" as="geometry" />
        </mxCell>
        <mxCell id="Of0GyVSlg59-bF7Z7GIo-35" value="" style="endArrow=none;html=1;rounded=0;fontSize=12;startSize=8;endSize=8;curved=1;entryX=0;entryY=0.5;entryDx=0;entryDy=0;" edge="1" parent="1" target="Of0GyVSlg59-bF7Z7GIo-28">
          <mxGeometry relative="1" as="geometry">
            <mxPoint x="200" y="319.5" as="sourcePoint" />
            <mxPoint x="270" y="319.5" as="targetPoint" />
          </mxGeometry>
        </mxCell>
        <mxCell id="Of0GyVSlg59-bF7Z7GIo-36" value="" style="ellipse;whiteSpace=wrap;html=1;aspect=fixed;" vertex="1" parent="1">
          <mxGeometry x="210" y="315" width="10" height="10" as="geometry" />
        </mxCell>
        <mxCell id="Of0GyVSlg59-bF7Z7GIo-37" value="" style="edgeStyle=entityRelationEdgeStyle;fontSize=12;html=1;endArrow=ERzeroToMany;endFill=1;startArrow=ERzeroToMany;rounded=0;startSize=8;endSize=8;curved=1;" edge="1" parent="1">
          <mxGeometry width="100" height="100" relative="1" as="geometry">
            <mxPoint x="210" y="160" as="sourcePoint" />
            <mxPoint x="300" y="160" as="targetPoint" />
          </mxGeometry>
        </mxCell>
        <mxCell id="Of0GyVSlg59-bF7Z7GIo-38" style="edgeStyle=none;curved=1;rounded=0;orthogonalLoop=1;jettySize=auto;html=1;entryX=0;entryY=0.633;entryDx=0;entryDy=0;entryPerimeter=0;fontSize=12;startSize=8;endSize=8;" edge="1" parent="1" source="Of0GyVSlg59-bF7Z7GIo-3" target="Of0GyVSlg59-bF7Z7GIo-3">
          <mxGeometry relative="1" as="geometry" />
        </mxCell>
        <mxCell id="Of0GyVSlg59-bF7Z7GIo-40" value="AUTHOR" style="rounded=0;whiteSpace=wrap;html=1;" vertex="1" parent="1">
          <mxGeometry x="100" y="450" width="120" height="60" as="geometry" />
        </mxCell>
        <mxCell id="Of0GyVSlg59-bF7Z7GIo-41" value="ARTICLE" style="rounded=0;whiteSpace=wrap;html=1;" vertex="1" parent="1">
          <mxGeometry x="320" y="450" width="120" height="60" as="geometry" />
        </mxCell>
        <mxCell id="Of0GyVSlg59-bF7Z7GIo-42" value="AUTHOR" style="rounded=0;whiteSpace=wrap;html=1;" vertex="1" parent="1">
          <mxGeometry x="90" y="595" width="120" height="60" as="geometry" />
        </mxCell>
        <mxCell id="Of0GyVSlg59-bF7Z7GIo-43" value="ARTICLE" style="rounded=0;whiteSpace=wrap;html=1;" vertex="1" parent="1">
          <mxGeometry x="350" y="595" width="120" height="60" as="geometry" />
        </mxCell>
        <mxCell id="Of0GyVSlg59-bF7Z7GIo-44" value="N:M" style="rhombus;whiteSpace=wrap;html=1;" vertex="1" parent="1">
          <mxGeometry x="260" y="605" width="40" height="40" as="geometry" />
        </mxCell>
        <mxCell id="Of0GyVSlg59-bF7Z7GIo-45" value="" style="endArrow=none;html=1;rounded=0;fontSize=12;startSize=8;endSize=8;curved=1;entryX=0;entryY=0.5;entryDx=0;entryDy=0;exitX=1;exitY=0.5;exitDx=0;exitDy=0;" edge="1" parent="1" target="Of0GyVSlg59-bF7Z7GIo-43">
          <mxGeometry relative="1" as="geometry">
            <mxPoint x="340" y="625" as="sourcePoint" />
            <mxPoint x="420" y="655" as="targetPoint" />
          </mxGeometry>
        </mxCell>
        <mxCell id="Of0GyVSlg59-bF7Z7GIo-46" value="" style="endArrow=none;html=1;rounded=0;fontSize=12;startSize=8;endSize=8;curved=1;entryX=0;entryY=0.5;entryDx=0;entryDy=0;exitX=1;exitY=0.5;exitDx=0;exitDy=0;" edge="1" parent="1" source="Of0GyVSlg59-bF7Z7GIo-44">
          <mxGeometry relative="1" as="geometry">
            <mxPoint x="300" y="625" as="sourcePoint" />
            <mxPoint x="330" y="625" as="targetPoint" />
          </mxGeometry>
        </mxCell>
        <mxCell id="Of0GyVSlg59-bF7Z7GIo-48" value="" style="endArrow=none;html=1;rounded=0;fontSize=12;startSize=8;endSize=8;curved=1;entryX=0;entryY=0.5;entryDx=0;entryDy=0;" edge="1" parent="1" target="Of0GyVSlg59-bF7Z7GIo-44">
          <mxGeometry relative="1" as="geometry">
            <mxPoint x="210" y="624.5" as="sourcePoint" />
            <mxPoint x="280" y="624.5" as="targetPoint" />
          </mxGeometry>
        </mxCell>
        <mxCell id="Of0GyVSlg59-bF7Z7GIo-51" style="edgeStyle=none;curved=1;rounded=0;orthogonalLoop=1;jettySize=auto;html=1;entryX=0;entryY=0.633;entryDx=0;entryDy=0;entryPerimeter=0;fontSize=12;startSize=8;endSize=8;" edge="1" parent="1" source="Of0GyVSlg59-bF7Z7GIo-41" target="Of0GyVSlg59-bF7Z7GIo-41">
          <mxGeometry relative="1" as="geometry" />
        </mxCell>
        <mxCell id="Of0GyVSlg59-bF7Z7GIo-52" value="" style="edgeStyle=entityRelationEdgeStyle;fontSize=12;html=1;endArrow=ERone;endFill=1;rounded=0;startSize=8;endSize=8;curved=1;exitX=0;exitY=0.5;exitDx=0;exitDy=0;entryX=1;entryY=0.5;entryDx=0;entryDy=0;" edge="1" parent="1" source="Of0GyVSlg59-bF7Z7GIo-44" target="Of0GyVSlg59-bF7Z7GIo-42">
          <mxGeometry width="100" height="100" relative="1" as="geometry">
            <mxPoint x="330" y="560" as="sourcePoint" />
            <mxPoint x="210" y="630" as="targetPoint" />
          </mxGeometry>
        </mxCell>
        <mxCell id="Of0GyVSlg59-bF7Z7GIo-53" value="" style="edgeStyle=entityRelationEdgeStyle;fontSize=12;html=1;endArrow=ERone;endFill=1;rounded=0;startSize=8;endSize=8;curved=1;entryX=0;entryY=0.5;entryDx=0;entryDy=0;exitX=1;exitY=0.5;exitDx=0;exitDy=0;" edge="1" parent="1" source="Of0GyVSlg59-bF7Z7GIo-44" target="Of0GyVSlg59-bF7Z7GIo-43">
          <mxGeometry width="100" height="100" relative="1" as="geometry">
            <mxPoint x="300" y="630" as="sourcePoint" />
            <mxPoint x="340" y="500" as="targetPoint" />
          </mxGeometry>
        </mxCell>
        <mxCell id="Of0GyVSlg59-bF7Z7GIo-54" value="" style="edgeStyle=entityRelationEdgeStyle;fontSize=12;html=1;endArrow=ERoneToMany;startArrow=ERoneToMany;rounded=0;startSize=8;endSize=8;curved=1;exitX=1;exitY=0.5;exitDx=0;exitDy=0;" edge="1" parent="1" source="Of0GyVSlg59-bF7Z7GIo-40">
          <mxGeometry width="100" height="100" relative="1" as="geometry">
            <mxPoint x="240" y="600" as="sourcePoint" />
            <mxPoint x="320" y="480" as="targetPoint" />
            <Array as="points">
              <mxPoint x="230" y="477" />
              <mxPoint x="230" y="480" />
              <mxPoint x="240" y="520" />
              <mxPoint x="230" y="470" />
            </Array>
          </mxGeometry>
        </mxCell>
        <mxCell id="Of0GyVSlg59-bF7Z7GIo-55" value="STUDENT" style="rounded=0;whiteSpace=wrap;html=1;" vertex="1" parent="1">
          <mxGeometry x="90" y="125" width="120" height="60" as="geometry" />
        </mxCell>
        <mxCell id="Of0GyVSlg59-bF7Z7GIo-56" value="COURSE" style="rounded=0;whiteSpace=wrap;html=1;" vertex="1" parent="1">
          <mxGeometry x="300" y="125" width="120" height="60" as="geometry" />
        </mxCell>
        <mxCell id="Of0GyVSlg59-bF7Z7GIo-57" value="STUDENT" style="rounded=0;whiteSpace=wrap;html=1;" vertex="1" parent="1">
          <mxGeometry x="80" y="290" width="120" height="60" as="geometry" />
        </mxCell>
        <mxCell id="Of0GyVSlg59-bF7Z7GIo-58" value="COURSE" style="rounded=0;whiteSpace=wrap;html=1;" vertex="1" parent="1">
          <mxGeometry x="340" y="290" width="120" height="60" as="geometry" />
        </mxCell>
        <mxCell id="Of0GyVSlg59-bF7Z7GIo-59" value="N:M" style="rhombus;whiteSpace=wrap;html=1;" vertex="1" parent="1">
          <mxGeometry x="250" y="300" width="40" height="40" as="geometry" />
        </mxCell>
        <mxCell id="Of0GyVSlg59-bF7Z7GIo-60" value="" style="endArrow=none;html=1;rounded=0;fontSize=12;startSize=8;endSize=8;curved=1;entryX=0;entryY=0.5;entryDx=0;entryDy=0;exitX=1;exitY=0.5;exitDx=0;exitDy=0;" edge="1" parent="1" source="Of0GyVSlg59-bF7Z7GIo-62" target="Of0GyVSlg59-bF7Z7GIo-58">
          <mxGeometry relative="1" as="geometry">
            <mxPoint x="250" y="350" as="sourcePoint" />
            <mxPoint x="410" y="350" as="targetPoint" />
          </mxGeometry>
        </mxCell>
        <mxCell id="Of0GyVSlg59-bF7Z7GIo-61" value="" style="endArrow=none;html=1;rounded=0;fontSize=12;startSize=8;endSize=8;curved=1;entryX=0;entryY=0.5;entryDx=0;entryDy=0;exitX=1;exitY=0.5;exitDx=0;exitDy=0;" edge="1" parent="1" source="Of0GyVSlg59-bF7Z7GIo-59" target="Of0GyVSlg59-bF7Z7GIo-62">
          <mxGeometry relative="1" as="geometry">
            <mxPoint x="290" y="320" as="sourcePoint" />
            <mxPoint x="340" y="320" as="targetPoint" />
          </mxGeometry>
        </mxCell>
        <mxCell id="Of0GyVSlg59-bF7Z7GIo-62" value="" style="ellipse;whiteSpace=wrap;html=1;aspect=fixed;" vertex="1" parent="1">
          <mxGeometry x="320" y="315" width="10" height="10" as="geometry" />
        </mxCell>
        <mxCell id="Of0GyVSlg59-bF7Z7GIo-63" value="" style="endArrow=none;html=1;rounded=0;fontSize=12;startSize=8;endSize=8;curved=1;entryX=0;entryY=0.5;entryDx=0;entryDy=0;" edge="1" parent="1" target="Of0GyVSlg59-bF7Z7GIo-59">
          <mxGeometry relative="1" as="geometry">
            <mxPoint x="200" y="319.5" as="sourcePoint" />
            <mxPoint x="270" y="319.5" as="targetPoint" />
          </mxGeometry>
        </mxCell>
        <mxCell id="Of0GyVSlg59-bF7Z7GIo-64" value="" style="ellipse;whiteSpace=wrap;html=1;aspect=fixed;" vertex="1" parent="1">
          <mxGeometry x="210" y="315" width="10" height="10" as="geometry" />
        </mxCell>
        <mxCell id="Of0GyVSlg59-bF7Z7GIo-65" value="" style="edgeStyle=entityRelationEdgeStyle;fontSize=12;html=1;endArrow=ERzeroToMany;endFill=1;startArrow=ERzeroToMany;rounded=0;startSize=8;endSize=8;curved=1;" edge="1" parent="1">
          <mxGeometry width="100" height="100" relative="1" as="geometry">
            <mxPoint x="210" y="160" as="sourcePoint" />
            <mxPoint x="300" y="160" as="targetPoint" />
          </mxGeometry>
        </mxCell>
        <mxCell id="Of0GyVSlg59-bF7Z7GIo-66" style="edgeStyle=none;curved=1;rounded=0;orthogonalLoop=1;jettySize=auto;html=1;entryX=0;entryY=0.633;entryDx=0;entryDy=0;entryPerimeter=0;fontSize=12;startSize=8;endSize=8;" edge="1" parent="1" source="Of0GyVSlg59-bF7Z7GIo-56" target="Of0GyVSlg59-bF7Z7GIo-56">
          <mxGeometry relative="1" as="geometry" />
        </mxCell>
        <mxCell id="Of0GyVSlg59-bF7Z7GIo-67" value="AUTHOR" style="rounded=0;whiteSpace=wrap;html=1;" vertex="1" parent="1">
          <mxGeometry x="100" y="450" width="120" height="60" as="geometry" />
        </mxCell>
        <mxCell id="Of0GyVSlg59-bF7Z7GIo-68" value="ARTICLE" style="rounded=0;whiteSpace=wrap;html=1;" vertex="1" parent="1">
          <mxGeometry x="320" y="450" width="120" height="60" as="geometry" />
        </mxCell>
        <mxCell id="Of0GyVSlg59-bF7Z7GIo-69" value="AUTHOR" style="rounded=0;whiteSpace=wrap;html=1;" vertex="1" parent="1">
          <mxGeometry x="90" y="595" width="120" height="60" as="geometry" />
        </mxCell>
        <mxCell id="Of0GyVSlg59-bF7Z7GIo-70" value="ARTICLE" style="rounded=0;whiteSpace=wrap;html=1;" vertex="1" parent="1">
          <mxGeometry x="350" y="595" width="120" height="60" as="geometry" />
        </mxCell>
        <mxCell id="Of0GyVSlg59-bF7Z7GIo-71" value="N:M" style="rhombus;whiteSpace=wrap;html=1;" vertex="1" parent="1">
          <mxGeometry x="260" y="605" width="40" height="40" as="geometry" />
        </mxCell>
        <mxCell id="Of0GyVSlg59-bF7Z7GIo-72" value="" style="endArrow=none;html=1;rounded=0;fontSize=12;startSize=8;endSize=8;curved=1;entryX=0;entryY=0.5;entryDx=0;entryDy=0;exitX=1;exitY=0.5;exitDx=0;exitDy=0;" edge="1" parent="1" target="Of0GyVSlg59-bF7Z7GIo-70">
          <mxGeometry relative="1" as="geometry">
            <mxPoint x="340" y="625" as="sourcePoint" />
            <mxPoint x="420" y="655" as="targetPoint" />
          </mxGeometry>
        </mxCell>
        <mxCell id="Of0GyVSlg59-bF7Z7GIo-73" value="" style="endArrow=none;html=1;rounded=0;fontSize=12;startSize=8;endSize=8;curved=1;entryX=0;entryY=0.5;entryDx=0;entryDy=0;exitX=1;exitY=0.5;exitDx=0;exitDy=0;" edge="1" parent="1" source="Of0GyVSlg59-bF7Z7GIo-71">
          <mxGeometry relative="1" as="geometry">
            <mxPoint x="300" y="625" as="sourcePoint" />
            <mxPoint x="330" y="625" as="targetPoint" />
          </mxGeometry>
        </mxCell>
        <mxCell id="Of0GyVSlg59-bF7Z7GIo-74" value="" style="endArrow=none;html=1;rounded=0;fontSize=12;startSize=8;endSize=8;curved=1;entryX=0;entryY=0.5;entryDx=0;entryDy=0;" edge="1" parent="1" target="Of0GyVSlg59-bF7Z7GIo-71">
          <mxGeometry relative="1" as="geometry">
            <mxPoint x="210" y="624.5" as="sourcePoint" />
            <mxPoint x="280" y="624.5" as="targetPoint" />
          </mxGeometry>
        </mxCell>
        <mxCell id="Of0GyVSlg59-bF7Z7GIo-75" style="edgeStyle=none;curved=1;rounded=0;orthogonalLoop=1;jettySize=auto;html=1;entryX=0;entryY=0.633;entryDx=0;entryDy=0;entryPerimeter=0;fontSize=12;startSize=8;endSize=8;" edge="1" parent="1" source="Of0GyVSlg59-bF7Z7GIo-68" target="Of0GyVSlg59-bF7Z7GIo-68">
          <mxGeometry relative="1" as="geometry" />
        </mxCell>
        <mxCell id="Of0GyVSlg59-bF7Z7GIo-76" value="" style="edgeStyle=entityRelationEdgeStyle;fontSize=12;html=1;endArrow=ERone;endFill=1;rounded=0;startSize=8;endSize=8;curved=1;exitX=0;exitY=0.5;exitDx=0;exitDy=0;entryX=1;entryY=0.5;entryDx=0;entryDy=0;" edge="1" parent="1" source="Of0GyVSlg59-bF7Z7GIo-71" target="Of0GyVSlg59-bF7Z7GIo-69">
          <mxGeometry width="100" height="100" relative="1" as="geometry">
            <mxPoint x="330" y="560" as="sourcePoint" />
            <mxPoint x="210" y="630" as="targetPoint" />
          </mxGeometry>
        </mxCell>
        <mxCell id="Of0GyVSlg59-bF7Z7GIo-77" value="" style="edgeStyle=entityRelationEdgeStyle;fontSize=12;html=1;endArrow=ERone;endFill=1;rounded=0;startSize=8;endSize=8;curved=1;entryX=0;entryY=0.5;entryDx=0;entryDy=0;exitX=1;exitY=0.5;exitDx=0;exitDy=0;" edge="1" parent="1" source="Of0GyVSlg59-bF7Z7GIo-71" target="Of0GyVSlg59-bF7Z7GIo-70">
          <mxGeometry width="100" height="100" relative="1" as="geometry">
            <mxPoint x="300" y="630" as="sourcePoint" />
            <mxPoint x="340" y="500" as="targetPoint" />
          </mxGeometry>
        </mxCell>
        <mxCell id="Of0GyVSlg59-bF7Z7GIo-78" value="" style="edgeStyle=entityRelationEdgeStyle;fontSize=12;html=1;endArrow=ERoneToMany;startArrow=ERoneToMany;rounded=0;startSize=8;endSize=8;curved=1;exitX=1;exitY=0.5;exitDx=0;exitDy=0;" edge="1" parent="1" source="Of0GyVSlg59-bF7Z7GIo-67">
          <mxGeometry width="100" height="100" relative="1" as="geometry">
            <mxPoint x="240" y="600" as="sourcePoint" />
            <mxPoint x="320" y="480" as="targetPoint" />
            <Array as="points">
              <mxPoint x="230" y="477" />
              <mxPoint x="230" y="480" />
              <mxPoint x="240" y="520" />
              <mxPoint x="230" y="470" />
            </Array>
          </mxGeometry>
        </mxCell>
        <mxCell id="Of0GyVSlg59-bF7Z7GIo-79" value="ADULT" style="rounded=0;whiteSpace=wrap;html=1;" vertex="1" parent="1">
          <mxGeometry x="80" y="850" width="120" height="60" as="geometry" />
        </mxCell>
        <mxCell id="Of0GyVSlg59-bF7Z7GIo-80" value="CAR" style="rounded=0;whiteSpace=wrap;html=1;" vertex="1" parent="1">
          <mxGeometry x="295" y="850" width="120" height="60" as="geometry" />
        </mxCell>
        <mxCell id="Of0GyVSlg59-bF7Z7GIo-82" value="CAR" style="rounded=0;whiteSpace=wrap;html=1;" vertex="1" parent="1">
          <mxGeometry x="330" y="1005" width="120" height="60" as="geometry" />
        </mxCell>
        <mxCell id="Of0GyVSlg59-bF7Z7GIo-84" value="" style="endArrow=none;html=1;rounded=0;fontSize=12;startSize=8;endSize=8;curved=1;entryX=0;entryY=0.5;entryDx=0;entryDy=0;exitX=1;exitY=0.5;exitDx=0;exitDy=0;" edge="1" parent="1" source="Of0GyVSlg59-bF7Z7GIo-86" target="Of0GyVSlg59-bF7Z7GIo-82">
          <mxGeometry relative="1" as="geometry">
            <mxPoint x="245" y="1065" as="sourcePoint" />
            <mxPoint x="405" y="1065" as="targetPoint" />
          </mxGeometry>
        </mxCell>
        <mxCell id="Of0GyVSlg59-bF7Z7GIo-85" value="" style="endArrow=none;html=1;rounded=0;fontSize=12;startSize=8;endSize=8;curved=1;entryX=0;entryY=0.5;entryDx=0;entryDy=0;exitX=1;exitY=0.5;exitDx=0;exitDy=0;" edge="1" parent="1">
          <mxGeometry relative="1" as="geometry">
            <mxPoint x="195" y="1339.5" as="sourcePoint" />
            <mxPoint x="260" y="1339.5" as="targetPoint" />
          </mxGeometry>
        </mxCell>
        <mxCell id="Of0GyVSlg59-bF7Z7GIo-86" value="" style="ellipse;whiteSpace=wrap;html=1;aspect=fixed;" vertex="1" parent="1">
          <mxGeometry x="315" y="1030" width="10" height="10" as="geometry" />
        </mxCell>
        <mxCell id="Of0GyVSlg59-bF7Z7GIo-90" style="edgeStyle=none;curved=1;rounded=0;orthogonalLoop=1;jettySize=auto;html=1;entryX=0;entryY=0.633;entryDx=0;entryDy=0;entryPerimeter=0;fontSize=12;startSize=8;endSize=8;" edge="1" parent="1" source="Of0GyVSlg59-bF7Z7GIo-80" target="Of0GyVSlg59-bF7Z7GIo-80">
          <mxGeometry relative="1" as="geometry" />
        </mxCell>
        <mxCell id="Of0GyVSlg59-bF7Z7GIo-91" value="CAR" style="rounded=0;whiteSpace=wrap;html=1;" vertex="1" parent="1">
          <mxGeometry x="95" y="1165" width="120" height="60" as="geometry" />
        </mxCell>
        <mxCell id="Of0GyVSlg59-bF7Z7GIo-92" value="PARKING SPOT" style="rounded=0;whiteSpace=wrap;html=1;" vertex="1" parent="1">
          <mxGeometry x="315" y="1165" width="120" height="60" as="geometry" />
        </mxCell>
        <mxCell id="Of0GyVSlg59-bF7Z7GIo-93" value="CAR" style="rounded=0;whiteSpace=wrap;html=1;" vertex="1" parent="1">
          <mxGeometry x="80" y="1310" width="120" height="60" as="geometry" />
        </mxCell>
        <mxCell id="Of0GyVSlg59-bF7Z7GIo-94" value="PARKING SPOT" style="rounded=0;whiteSpace=wrap;html=1;" vertex="1" parent="1">
          <mxGeometry x="345" y="1310" width="120" height="60" as="geometry" />
        </mxCell>
        <mxCell id="Of0GyVSlg59-bF7Z7GIo-95" value="N:M" style="rhombus;whiteSpace=wrap;html=1;" vertex="1" parent="1">
          <mxGeometry x="250" y="1320" width="45" height="40" as="geometry" />
        </mxCell>
        <mxCell id="Of0GyVSlg59-bF7Z7GIo-96" value="" style="endArrow=none;html=1;rounded=0;fontSize=12;startSize=8;endSize=8;curved=1;entryX=0;entryY=0.5;entryDx=0;entryDy=0;exitX=1;exitY=0.5;exitDx=0;exitDy=0;" edge="1" parent="1" target="Of0GyVSlg59-bF7Z7GIo-94">
          <mxGeometry relative="1" as="geometry">
            <mxPoint x="335" y="1340" as="sourcePoint" />
            <mxPoint x="415" y="1370" as="targetPoint" />
          </mxGeometry>
        </mxCell>
        <mxCell id="Of0GyVSlg59-bF7Z7GIo-97" value="" style="endArrow=none;html=1;rounded=0;fontSize=12;startSize=8;endSize=8;curved=1;entryX=0;entryY=0.5;entryDx=0;entryDy=0;exitX=1;exitY=0.5;exitDx=0;exitDy=0;" edge="1" parent="1" source="Of0GyVSlg59-bF7Z7GIo-95">
          <mxGeometry relative="1" as="geometry">
            <mxPoint x="295" y="1340" as="sourcePoint" />
            <mxPoint x="325" y="1340" as="targetPoint" />
          </mxGeometry>
        </mxCell>
        <mxCell id="Of0GyVSlg59-bF7Z7GIo-99" style="edgeStyle=none;curved=1;rounded=0;orthogonalLoop=1;jettySize=auto;html=1;entryX=0;entryY=0.633;entryDx=0;entryDy=0;entryPerimeter=0;fontSize=12;startSize=8;endSize=8;" edge="1" parent="1" source="Of0GyVSlg59-bF7Z7GIo-92" target="Of0GyVSlg59-bF7Z7GIo-92">
          <mxGeometry relative="1" as="geometry" />
        </mxCell>
        <mxCell id="Of0GyVSlg59-bF7Z7GIo-101" value="" style="edgeStyle=entityRelationEdgeStyle;fontSize=12;html=1;endArrow=ERone;endFill=1;rounded=0;startSize=8;endSize=8;curved=1;entryX=0;entryY=0.5;entryDx=0;entryDy=0;exitX=1;exitY=0.5;exitDx=0;exitDy=0;" edge="1" parent="1" source="Of0GyVSlg59-bF7Z7GIo-95" target="Of0GyVSlg59-bF7Z7GIo-94">
          <mxGeometry width="100" height="100" relative="1" as="geometry">
            <mxPoint x="295" y="1345" as="sourcePoint" />
            <mxPoint x="335" y="1215" as="targetPoint" />
          </mxGeometry>
        </mxCell>
        <mxCell id="Of0GyVSlg59-bF7Z7GIo-103" value="" style="edgeStyle=entityRelationEdgeStyle;fontSize=12;html=1;endArrow=ERone;endFill=1;rounded=0;startSize=8;endSize=8;curved=1;" edge="1" parent="1" source="Of0GyVSlg59-bF7Z7GIo-81">
          <mxGeometry width="100" height="100" relative="1" as="geometry">
            <mxPoint x="240" y="1034.5" as="sourcePoint" />
            <mxPoint x="150" y="1034.5" as="targetPoint" />
            <Array as="points">
              <mxPoint x="270" y="1004.5" />
              <mxPoint x="260" y="1004.5" />
            </Array>
          </mxGeometry>
        </mxCell>
        <mxCell id="Of0GyVSlg59-bF7Z7GIo-83" value="1:N" style="rhombus;whiteSpace=wrap;html=1;" vertex="1" parent="1">
          <mxGeometry x="210" y="1015" width="40" height="40" as="geometry" />
        </mxCell>
        <mxCell id="Of0GyVSlg59-bF7Z7GIo-106" style="edgeStyle=none;curved=1;rounded=0;orthogonalLoop=1;jettySize=auto;html=1;exitX=0;exitY=1;exitDx=0;exitDy=0;fontSize=12;startSize=8;endSize=8;" edge="1" parent="1" source="Of0GyVSlg59-bF7Z7GIo-83" target="Of0GyVSlg59-bF7Z7GIo-83">
          <mxGeometry relative="1" as="geometry" />
        </mxCell>
        <mxCell id="Of0GyVSlg59-bF7Z7GIo-108" value="" style="edgeStyle=entityRelationEdgeStyle;fontSize=12;html=1;endArrow=ERone;endFill=1;rounded=0;startSize=8;endSize=8;curved=1;" edge="1" parent="1" source="Of0GyVSlg59-bF7Z7GIo-83" target="Of0GyVSlg59-bF7Z7GIo-81">
          <mxGeometry width="100" height="100" relative="1" as="geometry">
            <mxPoint x="250" y="1035" as="sourcePoint" />
            <mxPoint x="150" y="1034.5" as="targetPoint" />
            <Array as="points">
              <mxPoint x="210" y="934.5" />
              <mxPoint x="210" y="924.5" />
              <mxPoint x="220" y="954.5" />
            </Array>
          </mxGeometry>
        </mxCell>
        <mxCell id="Of0GyVSlg59-bF7Z7GIo-81" value="ADULT" style="rounded=0;whiteSpace=wrap;html=1;" vertex="1" parent="1">
          <mxGeometry x="40" y="1005" width="120" height="60" as="geometry" />
        </mxCell>
        <mxCell id="Of0GyVSlg59-bF7Z7GIo-112" value="" style="edgeStyle=entityRelationEdgeStyle;fontSize=12;html=1;endArrow=ERzeroToMany;startArrow=ERmandOne;rounded=0;startSize=8;endSize=8;curved=1;exitX=1;exitY=0.5;exitDx=0;exitDy=0;entryX=0;entryY=0.5;entryDx=0;entryDy=0;" edge="1" parent="1" source="Of0GyVSlg59-bF7Z7GIo-79" target="Of0GyVSlg59-bF7Z7GIo-80">
          <mxGeometry width="100" height="100" relative="1" as="geometry">
            <mxPoint x="240" y="1130" as="sourcePoint" />
            <mxPoint x="340" y="1030" as="targetPoint" />
            <Array as="points">
              <mxPoint x="240" y="880" />
            </Array>
          </mxGeometry>
        </mxCell>
        <mxCell id="Of0GyVSlg59-bF7Z7GIo-116" value="" style="edgeStyle=entityRelationEdgeStyle;fontSize=12;html=1;endArrow=ERoneToMany;startArrow=ERzeroToMany;rounded=0;startSize=8;endSize=8;curved=1;entryX=0;entryY=0.5;entryDx=0;entryDy=0;exitX=1;exitY=0.5;exitDx=0;exitDy=0;" edge="1" parent="1" source="Of0GyVSlg59-bF7Z7GIo-91" target="Of0GyVSlg59-bF7Z7GIo-92">
          <mxGeometry width="100" height="100" relative="1" as="geometry">
            <mxPoint x="240" y="1140" as="sourcePoint" />
            <mxPoint x="340" y="1040" as="targetPoint" />
          </mxGeometry>
        </mxCell>
        <mxCell id="Of0GyVSlg59-bF7Z7GIo-124" value="" style="endArrow=none;html=1;rounded=0;fontSize=12;startSize=8;endSize=8;curved=1;entryX=0;entryY=0.5;entryDx=0;entryDy=0;" edge="1" parent="1" target="Of0GyVSlg59-bF7Z7GIo-117">
          <mxGeometry relative="1" as="geometry">
            <mxPoint x="205" y="1339.5" as="sourcePoint" />
            <mxPoint x="255" y="1340" as="targetPoint" />
          </mxGeometry>
        </mxCell>
        <mxCell id="Of0GyVSlg59-bF7Z7GIo-117" value="" style="ellipse;whiteSpace=wrap;html=1;aspect=fixed;" vertex="1" parent="1">
          <mxGeometry x="205" y="1335" width="10" height="10" as="geometry" />
        </mxCell>
        <mxCell id="Of0GyVSlg59-bF7Z7GIo-138" value="" style="endArrow=none;html=1;rounded=0;fontSize=12;startSize=8;endSize=8;curved=1;entryX=0;entryY=0.5;entryDx=0;entryDy=0;exitX=1;exitY=0.5;exitDx=0;exitDy=0;" edge="1" parent="1" source="Of0GyVSlg59-bF7Z7GIo-83" target="Of0GyVSlg59-bF7Z7GIo-86">
          <mxGeometry relative="1" as="geometry">
            <mxPoint x="210" y="1090" as="sourcePoint" />
            <mxPoint x="370" y="1090" as="targetPoint" />
          </mxGeometry>
        </mxCell>
      </root>
    </mxGraphModel>
  </diagram>
</mxfile>
